<?xml version="1.0" encoding="UTF-8"?>
<svg xmlns="http://www.w3.org/2000/svg" xmlns:xlink="http://www.w3.org/1999/xlink" width="20pt" height="20pt" viewBox="0 0 20 20" version="1.1">
<g id="surface1">
<path style=" stroke:none;fill-rule:nonzero;fill:rgb(51.372549%,63.921569%,67.058824%);fill-opacity:1;" d="M 6.9375 12.253906 L 9.386719 9.800781 L 10.070312 10.484375 L 7.617188 12.933594 Z M 6.9375 12.253906 "/>
<path style=" stroke:none;fill-rule:nonzero;fill:rgb(57.647059%,71.764706%,75.294118%);fill-opacity:1;" d="M 6.800781 12.117188 L 9.25 9.664062 L 9.660156 10.074219 L 7.207031 12.527344 Z M 6.800781 12.117188 "/>
<path style=" stroke:none;fill-rule:nonzero;fill:rgb(57.647059%,71.764706%,75.294118%);fill-opacity:1;" d="M 2.550781 15.550781 L 0.507812 19.230469 C 1.183594 19.90625 2.285156 19.90625 2.960938 19.230469 L 3.777344 18.410156 Z M 2.550781 15.550781 "/>
<path style=" stroke:none;fill-rule:nonzero;fill:rgb(67.45098%,83.529412%,87.45098%);fill-opacity:1;" d="M 1.324219 15.960938 L 0.507812 16.777344 C -0.167969 17.453125 -0.167969 18.550781 0.507812 19.230469 L 3.371094 16.367188 Z M 1.324219 15.960938 "/>
<path style=" stroke:none;fill-rule:nonzero;fill:rgb(22.745098%,43.529412%,84.705882%);fill-opacity:1;" d="M 3.777344 18.410156 L 9.253906 12.9375 L 8.027344 11.707031 L 4.472656 13.628906 L 2.550781 17.183594 Z M 3.777344 18.410156 "/>
<path style=" stroke:none;fill-rule:nonzero;fill:rgb(23.137255%,53.333333%,96.078431%);fill-opacity:1;" d="M 1.324219 15.957031 L 6.796875 10.484375 L 8.027344 11.707031 L 2.550781 17.183594 Z M 1.324219 15.957031 "/>
<path style=" stroke:none;fill-rule:nonzero;fill:rgb(57.647059%,71.764706%,75.294118%);fill-opacity:1;" d="M 17.867188 1.867188 L 11.101562 4.125 L 8.84375 10.890625 C 11.339844 13.382812 15.375 13.382812 17.867188 10.890625 C 20.359375 8.398438 20.359375 4.359375 17.867188 1.867188 Z M 17.867188 1.867188 "/>
<path style=" stroke:none;fill-rule:nonzero;fill:rgb(67.45098%,83.529412%,87.45098%);fill-opacity:1;" d="M 8.84375 1.867188 C 6.355469 4.359375 6.355469 8.398438 8.84375 10.890625 L 17.867188 1.867188 C 15.375 -0.621094 11.339844 -0.621094 8.84375 1.867188 Z M 8.84375 1.867188 "/>
<path style=" stroke:none;fill-rule:nonzero;fill:rgb(76.862745%,95.294118%,100%);fill-opacity:1;" d="M 16.230469 3.503906 L 11.917969 4.941406 L 10.484375 9.257812 C 12.066406 10.84375 14.644531 10.84375 16.230469 9.257812 C 17.824219 7.667969 17.820312 5.09375 16.230469 3.503906 Z M 16.230469 3.503906 "/>
<path style=" stroke:none;fill-rule:nonzero;fill:rgb(100%,100%,100%);fill-opacity:1;" d="M 10.480469 3.503906 C 8.890625 5.09375 8.890625 7.667969 10.480469 9.257812 L 16.230469 3.503906 C 14.644531 1.917969 12.070312 1.917969 10.480469 3.503906 Z M 10.480469 3.503906 "/>
</g>
</svg>
